<svg xmlns="http://www.w3.org/2000/svg" viewBox="0 0 512 512" role="img" aria-labelledby="title desc">
  <title id="title">Barbearia Mestre</title>
  <desc id="desc">Logo do sistema de barbearia com monograma BM e navalha.</desc>
  <rect width="512" height="512" rx="112" fill="#111214"/>
  <path fill="#f4c84a" d="M116 132h280c18 0 32 14 32 32v184c0 18-14 32-32 32H116c-18 0-32-14-32-32V164c0-18 14-32 32-32Zm16 48v152h248V180H132Z"/>
  <path fill="#f7f0d8" d="M173 220c0-22 16-38 45-38h57v40h-50c-8 0-12 4-12 11v69h-40v-82Zm88 0c0-22 16-38 45-38h33v40h-26c-8 0-12 4-12 11v69h-40v-82Z"/>
  <path fill="#111214" d="M219 262h38v40h-38zM307 262h34v40h-34z"/>
  <path fill="#f4c84a" d="M145 406h222c16 0 28 12 28 28s-12 28-28 28H145c-16 0-28-12-28-28s12-28 28-28Z"/>
  <path fill="#111214" d="M182 424h148v20H182z"/>
</svg>
